<svg width="301" height="61" viewBox="0 0 301 61" fill="none" xmlns="http://www.w3.org/2000/svg">
<path d="M44.3721 11.1773L33.208 22.8489L22.0438 11.1773H1.11106L22.6781 33.5056L0.984192 55.9607H21.7901L33.208 44.2891L44.3721 55.9607H65.4317L43.8646 33.5056L65.4317 11.1773H44.3721Z" fill="white"/>
<path d="M88.3943 0.647461H71.9018L72.1556 40.1026C74.0839 56.1383 94.5262 57.2716 104.506 55.8338V44.0354C93.3421 44.3398 89.4515 37.819 88.9018 34.5205V22.722H101.969V11.1773H88.3943V0.647461Z" fill="white"/>
<path d="M158.17 11.0504C171.77 13.1817 173.986 29.5304 173.394 37.4384H122.521C122.927 42.107 126.496 43.6971 128.23 43.9085H154.237C156.166 43.5025 158.509 41.7941 159.439 40.9906L170.222 47.0801C165.554 53.3727 159.735 55.5378 157.409 55.8338H124.043C112.879 55.8338 109.243 43.5702 108.82 37.4384C107.297 18.6623 118.927 12.023 124.932 11.0504H158.17Z" fill="white"/>
<path d="M180.118 55.8338V11.0504H194.073V18.6623C203.004 11.8623 212.088 10.7544 215.513 11.0504V22.722C200.188 25.4623 194.834 33.6747 194.073 37.4384V55.8338H180.118Z" fill="white"/>
<path d="M235.939 22.722H222.618V56.0876H235.939V22.722Z" fill="white"/>
<path d="M273.632 6.04871C267.416 6.04871 261.822 8.11709 257.263 11.4265C257.056 11.5299 256.952 11.6333 256.745 11.8402C247.007 19.1829 237.475 9.15128 237.475 9.15128C237.475 4.49743 233.745 0.774353 229.083 0.774353C224.318 0.774353 220.588 4.49743 220.588 9.15128C220.588 13.8051 224.318 17.5282 228.98 17.5282C230.327 17.5282 231.466 17.2179 232.606 16.7009C233.227 16.8043 246.489 18.7692 246.178 31.4897C246.178 32.1103 246.074 32.7308 246.074 33.4547C246.074 48.6573 258.403 60.9641 273.529 60.9641C288.758 60.9641 300.984 48.6573 300.984 33.4547C301.087 18.3556 288.758 6.04871 273.632 6.04871ZM273.632 47.4162C265.862 47.4162 259.646 41.2111 259.646 33.4547C259.646 25.6983 265.862 19.4932 273.632 19.4932C281.403 19.4932 287.619 25.6983 287.619 33.4547C287.619 41.2111 281.299 47.4162 273.632 47.4162Z" fill="url(#paint0_linear_309_69)"/>
<path d="M273.576 47.4214C281.353 47.4214 287.656 41.1656 287.656 33.4488C287.656 25.7319 281.353 19.4761 273.576 19.4761C265.8 19.4761 259.496 25.7319 259.496 33.4488C259.496 41.1656 265.8 47.4214 273.576 47.4214Z" fill="white"/>
<path d="M33.5886 22.8489L44.7527 11.1773H65.5586L44.1184 33.5056L65.5586 55.707H44.7527L33.5886 44.5429" stroke="white"/>
<path d="M160.834 28.0768H123.029C123.029 24.829 126.158 23.1713 127.723 22.7485C136.73 22.537 155.252 22.241 157.282 22.7485C159.312 23.2559 160.496 26.5121 160.834 28.0768Z" fill="url(#paint1_linear_309_69)"/>
<defs>
<linearGradient id="paint0_linear_309_69" x1="223.812" y1="4.10629" x2="282.497" y2="42.1548" gradientUnits="userSpaceOnUse">
<stop offset="0.0625" stop-color="#CCF2FF"/>
<stop offset="0.493358" stop-color="#7ED6F9"/>
<stop offset="0.91906" stop-color="#EBB6EB"/>
</linearGradient>
<linearGradient id="paint1_linear_309_69" x1="124.545" y1="22.7787" x2="127.893" y2="33.7349" gradientUnits="userSpaceOnUse">
<stop offset="0.0625" stop-color="#CCF2FF"/>
<stop offset="0.493358" stop-color="#7ED6F9"/>
<stop offset="0.91906" stop-color="#EBB6EB"/>
</linearGradient>
</defs>
</svg>
