<svg width="206" height="194" viewBox="0 0 206 194" fill="none" xmlns="http://www.w3.org/2000/svg">
<path d="M168.555 110.899L168.527 110.895L168.534 110.845C168.527 110.895 168.527 110.895 168.526 110.895L168.526 110.894L168.524 110.894L168.516 110.893L168.486 110.888C168.459 110.884 168.42 110.878 168.37 110.87C168.268 110.854 168.12 110.83 167.93 110.798C167.551 110.735 167.007 110.639 166.344 110.51C165.018 110.252 163.214 109.861 161.304 109.332C159.396 108.803 157.37 108.132 155.606 107.309C153.855 106.493 152.301 105.501 151.4 104.3L151.286 104.148L168.555 110.899ZM168.555 110.899L168.584 110.9M168.555 110.899L168.584 110.9M168.584 110.9L203.058 112.015C182.118 119.576 167.545 126.469 158.126 131.535C153.233 134.166 149.73 136.304 147.448 137.787C146.307 138.528 145.471 139.106 144.919 139.499C144.643 139.696 144.438 139.846 144.301 139.948C144.232 139.999 144.181 140.038 144.146 140.064L144.107 140.094L144.102 140.098C128.187 151.396 117.871 164.826 111.533 175.431C108.364 180.735 106.188 185.334 104.803 188.61C104.141 190.177 103.66 191.442 103.338 192.336C95.4472 166.307 72.8641 148.856 61.2901 139.912C59.704 138.686 58.3246 137.621 57.2182 136.714C54.8152 134.721 50.0314 132.079 44.2639 129.251C38.478 126.414 31.6506 123.367 25.1222 120.565C18.5928 117.764 12.358 115.206 7.75586 113.349C5.67319 112.508 3.92466 111.811 2.63423 111.3H29.6H29.6071L29.6143 111.3L29.6 110.8C29.6143 111.3 29.6145 111.3 29.6147 111.3L29.6157 111.3L29.6194 111.3L29.6333 111.299L29.6872 111.297C29.7345 111.296 29.8042 111.293 29.895 111.29C30.0765 111.283 30.342 111.271 30.6798 111.254C31.3552 111.219 32.3197 111.16 33.4787 111.064C35.7951 110.872 38.895 110.533 42.0181 109.941C45.1341 109.351 48.306 108.503 50.7486 107.282C53.1651 106.073 55.0269 104.416 55.1985 102.139C55.4446 99.0888 56.1839 96.0289 57.0128 93.4928C57.8443 90.9485 58.7541 88.9673 59.3227 88.067L59.3361 88.0459L59.3472 88.0236C59.6176 87.4828 59.6176 86.9171 59.3472 86.3764L59.3393 86.3606L59.3303 86.3454L51.5882 73.2574C57.2803 74.9033 65.11 75.8807 68.2302 76.2702C68.302 76.2791 68.3713 76.2878 68.438 76.2961L68.4689 76.3H68.5C69.2591 76.3 70.0455 75.9189 70.4432 75.1316C71.0476 74.019 72.087 72.9399 73.393 71.9152C74.6972 70.892 76.2395 69.9446 77.8137 69.0893C79.3866 68.2348 80.981 67.4777 82.3867 66.8325C82.8329 66.6277 83.2624 66.4332 83.6667 66.2501C84.5267 65.8606 85.2728 65.5226 85.8236 65.2472C86.5299 64.894 87.2947 64.3152 88.331 62.5535L88.3314 62.5527C89.8207 60.0106 91.5232 54.8132 93.2356 48.5203C94.9544 42.2038 96.7003 34.7163 98.2635 27.544C99.827 20.3706 101.209 13.5075 102.2 8.43812C102.65 6.13905 103.019 4.20868 103.288 2.7853C111.003 45.6365 117.959 60.5362 119.656 63.829L119.675 63.8663L119.7 63.9L119.724 63.9326C120.007 64.3099 120.377 64.8044 121 65.0586C127.611 68.1413 131.874 70.994 134.476 73.0661C135.778 74.1029 136.665 74.9445 137.223 75.5223C137.502 75.8112 137.699 76.0342 137.824 76.1827C137.887 76.257 137.932 76.3126 137.96 76.3486C137.975 76.3666 137.985 76.3796 137.991 76.3876L137.997 76.3958L137.997 76.3963L137.998 76.3967L137.998 76.3969L137.998 76.397L138.187 76.6543L138.501 76.5897L153.943 73.4078L146.361 87.2599L146.212 87.5331L146.391 87.7878C149.188 91.7629 150.417 95.8136 150.945 98.8726C151.209 100.402 151.298 101.68 151.32 102.574C151.332 103.02 151.327 103.37 151.319 103.607C151.315 103.725 151.311 103.815 151.307 103.874C151.307 103.887 151.306 103.898 151.305 103.908C151.304 103.921 151.304 103.932 151.303 103.94L151.302 103.955L151.302 103.958L151.302 103.959L168.584 110.9ZM136.144 120.151L136.145 120.152L136.935 120.952L136.999 119.828C137.702 107.498 135.849 99.1516 132.614 93.5832C129.368 87.9983 124.759 85.2555 120.071 84.0898C115.398 82.928 110.656 83.333 107.1 84.012C105.319 84.3521 103.827 84.7625 102.78 85.085C102.605 85.1389 102.443 85.1903 102.293 85.2385C103.116 83.7244 104.215 82.1259 105.189 80.81C105.791 79.9979 106.339 79.3003 106.738 78.8059C106.937 78.5588 107.098 78.3626 107.21 78.2286C107.265 78.1616 107.308 78.1101 107.337 78.0755L107.37 78.0366L107.378 78.027L107.38 78.0247L107.381 78.0242L107.381 78.0241L107.996 77.3013L107.052 77.2027C93.4858 75.7854 85.0451 80.852 80.4546 85.2385C76.1361 89.3517 74.0683 95.5313 75.5144 101.419L75.5153 101.423C76.4453 105.091 78.4611 107.622 80.2393 109.233C80.9275 109.856 81.5813 110.343 82.1255 110.706C78.0668 110.817 75.2321 109.746 73.3751 108.599C72.3239 107.951 71.5793 107.274 71.1004 106.764C70.861 106.509 70.6883 106.296 70.5771 106.149C70.5215 106.076 70.4813 106.019 70.4559 105.983C70.4432 105.964 70.4343 105.951 70.4289 105.942L70.4236 105.934L70.4236 105.934L70.4233 105.934L70.4231 105.934L70.4229 105.933L69.6125 104.641L69.5013 106.164C68.4899 120.02 73.4519 129.061 79.3495 134.857L79.3542 134.861C86.5654 141.768 96.6095 145.009 106.541 144.198L106.541 144.198C110.214 143.896 114.305 143.19 117.643 141.681C120.984 140.17 123.652 137.815 124.292 134.187C125.674 126.409 122.93 120.936 119.838 117.42C118.296 115.667 116.67 114.402 115.429 113.575C115.213 113.43 115.008 113.299 114.817 113.181C121.457 112.871 126.647 114.477 130.244 116.225C132.192 117.171 133.674 118.159 134.666 118.908C135.162 119.283 135.535 119.597 135.783 119.816C135.906 119.926 135.999 120.011 136.059 120.069C136.089 120.097 136.111 120.119 136.126 120.133L136.141 120.148L136.144 120.151L136.144 120.151Z" stroke="url(#paint0_diamond_232_481)"/>
<path d="M161.4 108.9C161.4 108.9 149.4 107.1 146.4 103.2C146.4 103.2 147 95.7 141.9 88.5L149.1 75.3L134.4 78.3C134.4 78.3 130.9 73.6 119.1 68.1C118.7 67.9 118.4 67.6 118.2 67.2C116.7 64.3 110.3 50.5 103.2 10.6C103.2 10.6 94.6 57.3 89.5 66.1C88.6 67.6 88 68 87.4 68.3C84.5 69.8 75.8 73 73.5 77.3C73.2 77.8 72.7 78.1 72.1 78.1C69.3 77.8 61.2 76.7 56.1 75L63.6 87.6C63.8 87.9 63.8 88.3 63.6 88.6C62.5 90.3 60.3001 95.8 59.9001 101.4C59.4001 108.5 37.5 109.1 37.5 109.1H11.3C11.3 109.1 53.6001 125.6 61.9001 132.5C70.3001 139.4 95.7 156.2 103.2 183.1C103.2 183.1 111.6 155.5 139.8 135.5C139.8 135.5 154.8 123.8 194.3 109.7L161.4 108.9ZM132.8 117.3C132.8 117.3 125.4 109.8 111.9 111C111.9 111 123.8 116.5 121.4 130C120.3 136.1 112.5 138 106 138.6C97.2 139.3 88.5 136.5 82.2 130.4C77 125.3 72.6 117.4 73.6 105.2C73.6 105.2 76.9 110.5 85.9 109.6C85.9 109.6 80.5 107.2 79 100.9C77.7 95.8 79.5 90.5 83.3 86.9C87.3 83.1 94.7 78.6 106.6 79.9C106.6 79.9 103 84.1 101.5 87.4C101.5 87.4 135.3 73.6 132.8 117.3Z" fill="url(#paint1_linear_232_481)"/>
<defs>
<radialGradient id="paint0_diamond_232_481" cx="0" cy="0" r="1" gradientUnits="userSpaceOnUse" gradientTransform="translate(100.5 60) rotate(88.9953) scale(134.021 142.103)">
<stop stop-color="#FF0A0A"/>
<stop offset="0.853995" stop-color="#FF005C" stop-opacity="0.58"/>
<stop offset="1" stop-color="#8F00FF" stop-opacity="0.61"/>
</radialGradient>
<linearGradient id="paint1_linear_232_481" x1="103" y1="-32.1999" x2="111.5" y2="225.3" gradientUnits="userSpaceOnUse">
<stop stop-color="#FFA2B2"/>
<stop offset="1" stop-color="white"/>
</linearGradient>
</defs>
</svg>
