<svg xmlns="http://www.w3.org/2000/svg" viewBox="0 0 293.28 276.48"><defs><style>.cls-1{fill:#fff;}</style></defs><g id="Layer_2" data-name="Layer 2"><g id="Layer_1-2" data-name="Layer 1"><path class="cls-1" d="M240.48,157.44s-19.2-2.88-24-9.12a39.07,39.07,0,0,0-7.2-23.52l11.52-21.12-23.52,4.8s-5.63-7.6-24.48-16.36a3.29,3.29,0,0,1-1.52-1.43C168.83,86,158.59,64,147.33,0c0,0-13.71,74.76-21.94,88.91C124,91.38,123,92,122.1,92.46c-4.63,2.33-18.61,7.51-22.27,14.43a2.24,2.24,0,0,1-2.21,1.23c-4.5-.52-17.41-2.18-25.62-4.92l12,20.25a1.61,1.61,0,0,1,0,1.68c-1.74,2.74-5.3,11.59-6,20.43-.84,11.4-35.84,12.36-35.84,12.36H0s67.68,26.4,81.12,37.44,54.18,37.92,66.21,81.12c0,0,13.47-44.16,58.59-76.32,0,0,24-18.72,87.36-41.28ZM194.7,170.82s-11.82-11.94-33.42-10c0,0,19.11,8.74,15.24,30.36-1.74,9.75-14.26,12.87-24.69,13.75a48.76,48.76,0,0,1-38.19-13.19c-8.33-8.1-15.32-20.79-13.85-40.32,0,0,5.33,8.44,19.73,7a21.5,21.5,0,0,1-11.1-13.91,23.25,23.25,0,0,1,6.89-22.36c6.46-6.13,18.27-13.24,37.33-11.25,0,0-5.76,6.72-8.16,12C144.48,122.88,198.66,100.8,194.7,170.82Z"/></g></g></svg>