<svg xmlns="http://www.w3.org/2000/svg" viewBox="0 0 205.64 193.86"><defs><style>.cls-1{fill:#e30613;}.cls-2{fill:#fff;}</style></defs><g id="Layer_2" data-name="Layer 2"><g id="Layer_1-2" data-name="Layer 1"><path class="cls-1" d="M168.62,110.39s-13.47-2-16.83-6.39a27.4,27.4,0,0,0-5-16.49l8.08-14.81-16.49,3.36s-4-5.33-17.17-11.47a2.28,2.28,0,0,1-1.06-1c-1.72-3.26-8.9-18.75-16.8-63.59,0,0-9.61,52.42-15.38,62.34a5.29,5.29,0,0,1-2.31,2.49C82.37,66.46,72.56,70.1,70,75a1.58,1.58,0,0,1-1.55.86c-3.16-.36-12.21-1.53-18-3.45l8.4,14.2a1.14,1.14,0,0,1,0,1.18,37.4,37.4,0,0,0-4.17,14.32c-.59,8-25.13,8.67-25.13,8.67H0S47.46,129.24,56.88,137s38,26.59,46.42,56.88c0,0,9.45-31,41.08-53.51,0,0,16.83-13.13,61.26-28.95Zm-32.1,9.38s-8.29-8.37-23.44-7c0,0,13.4,6.13,10.69,21.29-1.22,6.83-10,9-17.31,9.64a34.24,34.24,0,0,1-26.78-9.25c-5.84-5.68-10.74-14.58-9.71-28.27,0,0,3.74,5.91,13.83,4.91A15.12,15.12,0,0,1,76,101.31a16.3,16.3,0,0,1,4.83-15.68c4.53-4.29,12.81-9.28,26.18-7.88a46,46,0,0,0-5.73,8.41S139.29,70.68,136.52,119.77Z"/><path class="cls-2" d="M161.4,108.92s-12-1.8-15-5.7a24.39,24.39,0,0,0-4.49-14.68l7.19-13.19-14.69,3s-3.51-4.74-15.28-10.21a2.07,2.07,0,0,1-1-.9c-1.53-2.9-7.92-16.69-15-56.62,0,0-8.56,46.68-13.7,55.51a4.75,4.75,0,0,1-2,2.22c-2.89,1.45-11.62,4.69-13.9,9a1.41,1.41,0,0,1-1.38.77c-2.81-.33-10.87-1.37-16-3.08L63.69,87.7a1,1,0,0,1,0,1A33.2,33.2,0,0,0,60,101.5c-.53,7.12-22.38,7.72-22.38,7.72H11.27s42.25,16.48,50.64,23.37,33.83,23.67,41.34,50.64c0,0,8.41-27.57,36.58-47.64,0,0,15-11.69,54.54-25.77Zm-28.58,8.35S125.44,109.82,112,111c0,0,11.93,5.46,9.51,19-1.08,6.09-8.9,8-15.41,8.58a30.41,30.41,0,0,1-23.84-8.23c-5.2-5.06-9.57-13-8.65-25.17,0,0,3.33,5.26,12.32,4.37A13.42,13.42,0,0,1,79,100.83a14.53,14.53,0,0,1,4.3-14c4-3.83,11.41-8.26,23.31-7a40.59,40.59,0,0,0-5.1,7.49S135.3,73.56,132.82,117.27Z"/></g></g></svg>