<svg width="107" height="110" viewBox="0 0 107 110" fill="none" xmlns="http://www.w3.org/2000/svg">
<path d="M50.1779 0C15.841 0 0.998535 30.415 0.998535 30.415L5.37373 33.495C5.37373 33.495 -0.109108 44 0.00165593 57.2C0.00165593 84.37 21.8222 110 53.8331 110C82.9641 110 107 86.405 107 57.255C107 19.25 77.3152 0 50.1779 0ZM50.5102 9.295C77.3152 9.295 98.1389 30.8 98.1389 55.77C98.1389 82.225 78.0905 100.65 54.7192 100.65C37.5508 100.65 22.0438 87.67 22.0438 69.85C22.0438 59.51 27.5266 52.25 33.7294 48.51L34.6155 49.5C32.954 50.82 28.1358 58.52 28.1358 66C28.1358 80.08 39.2122 89.815 53.1685 89.815C70.9462 89.815 82.798 74.745 82.798 57.255C82.798 36.905 64.688 19.635 42.9228 19.635C30.9049 19.635 20.7146 24.75 14.8441 29.315L13.9026 28.49C21.6007 16.72 34.8924 9.295 50.5102 9.295ZM42.369 28.765C56.3807 28.765 69.894 37.895 73.3276 50.875L72.0539 51.315C66.0172 43.34 56.0484 36.74 44.3074 36.74C22.653 36.74 11.2996 56.265 12.9611 72.545L11.6873 73.04C11.6873 73.04 9.30586 67.815 9.30586 61.6C9.30586 43.615 24.1483 28.765 42.369 28.765ZM51.6732 51.315C58.2083 51.315 63.4696 56.65 63.4696 62.92C63.4696 68.09 60.1467 71.17 60.1467 71.17L64.0788 73.975C64.0788 73.975 60.1467 80.135 52.1163 80.135C44.4182 80.135 37.5508 73.92 37.5508 65.615C37.5508 57.09 44.972 51.315 51.6732 51.315Z" fill="white"/>
</svg>
